#!OML:ASF H:\Terrain\Patient Classification 1\Walking\steve\steve.ASF
:FULLY-SPECIFIED
:DEGREES
204
root 7.22026 16.4007 10.8113 7.70614 1.99253 -2.56478
lowerback -0.692112 1.15816 3.50586
upperback -3.07301 1.65148 3.01454
thorax -2.76424 0.780698 1.10894
lowerneck -10.8524 -1.11253 -1.20962
upperneck 13.9752 -0.898234 -2.56913
head 6.01548 -0.698194 -0.68921
rclavicle -1.87106e-014 2.8625e-014
rhumerus -36.1035 -26.22 -72.3643
rradius 18.7428
rwrist 11.7533
rhand -20.2131 -37.6391
rfingers 7.12502
rthumb 6.13408 -67.5303
lclavicle -1.87106e-014 2.8625e-014
lhumerus -24.6957 -3.5937 92.6221
lradius 24.4761
lwrist 13.3205
lhand -23.9197 -14.8757
lfingers 7.12502
lthumb 2.55492 15.0887
rfemur -24.3558 0.324233 28.6558
rtibia 39.901
rfoot -19.1742 11.5427
rtoes 4.5759
lfemur -22.3065 3.6702 -17.4425
ltibia 62.7043
lfoot -10.7637 -1.41415
ltoes -16.9885
205
root 7.23285 16.4085 11.0338 7.82196 1.74505 -2.90618
lowerback -0.915028 1.33304 3.90044
upperback -3.14 1.87902 3.07404
thorax -2.69776 0.885708 0.951718
lowerneck -10.4829 -1.05505 -1.23023
upperneck 13.7757 -0.835853 -2.52705
head 5.88993 -0.661061 -0.663379
rclavicle 3.19298e-015 -3.97569e-015
rhumerus -33.1406 -24.1824 -74.6396
rradius 19.4429
rwrist 10.0068
rhand -20.3155 -35.1949
rfingers 7.12502
rthumb 6.03521 -65.089
lclavicle 3.19298e-015 -3.97569e-015
lhumerus -26.8101 -2.33861 92.4347
lradius 22.9134
lwrist 11.4014
lhand -23.7055 -14.303
lfingers 7.12502
lthumb 2.7618 15.6589
rfemur -23.3245 0.361579 29.0073
rtibia 39.4753
rfoot -19.2367 12.2593
rtoes 6.14285
lfemur -24.0683 3.57238 -17.2766
ltibia 62.2122
lfoot -11.7653 -1.22895
ltoes -15.5445
206
root 7.24038 16.4123 11.2566 7.96941 1.4097 -3.36008
lowerback -1.09911 1.58795 4.32541
upperback -3.24922 2.2174 3.17041
thorax -2.69346 1.04468 0.814718
lowerneck -10.4043 -1.07452 -1.3084
upperneck 14.0086 -0.852957 -2.47589
head 5.95047 -0.671544 -0.63673
rclavicle -1.34304e-014 -1.03368e-014
rhumerus -30.3693 -21.355 -76.8279
rradius 20.3091
rwrist 6.97216
rhand -21.0556 -33.4452
rfingers 7.12502
rthumb 5.32067 -63.3584
lclavicle -1.34304e-014 -1.03368e-014
lhumerus -29.023 -1.57486 92.3216
lradius 21.4559
lwrist 9.97346
lhand -23.9553 -13.9355
lfingers 7.12502
lthumb 2.52051 16.0294
rfemur -22.4296 0.386766 29.5052
rtibia 39.0466
rfoot -19.5173 12.6721
rtoes 5.20012
lfemur -25.7915 3.63364 -16.9183
ltibia 61.6433
lfoot -12.6211 -1.3022
ltoes -14.8953
207
root 7.24847 16.401 11.4748 8.00208 1.05675 -3.79778
lowerback -1.03151 1.82949 4.7109
upperback -3.34909 2.55407 3.24516
thorax -2.81851 1.20096 0.670934
lowerneck -10.3867 -1.07868 -1.412
upperneck 14.2293 -0.868613 -2.26857
head 6.01846 -0.670901 -0.556724
rclavicle -2.46245e-014 -2.94201e-014
rhumerus -28.1231 -18.4147 -78.6242
rradius 21.6965
rwrist 4.08578
rhand -21.421 -33.6791
rfingers 7.12502
rthumb 4.96781 -63.6009
lclavicle -2.46245e-014 -2.94201e-014
lhumerus -31.2409 -0.638699 91.9485
lradius 20.1311
lwrist 8.4607
lhand -24.0996 -13.5267
lfingers 7.12502
lthumb 2.38115 16.4397
rfemur -21.4522 0.161561 30.0073
rtibia 38.5967
rfoot -19.7411 12.9844
rtoes 3.56548
lfemur -27.43 3.78411 -16.5409
ltibia 60.9121
lfoot -13.6386 -1.43937
ltoes -15.8678
208
root 7.26501 16.3902 11.7021 7.89746 0.661655 -3.95909
lowerback -0.859802 2.03358 4.9311
upperback -3.44897 2.84498 3.18037
thorax -2.99998 1.33482 0.471096
lowerneck -9.98096 -1.01078 -1.35441
upperneck 14.1262 -0.836072 -2.01825
head 5.91668 -0.629466 -0.481093
rclavicle -4.09993e-016 -1.90833e-014
rhumerus -26.2051 -16.2329 -79.8804
rradius 23.1164
rwrist 2.66474
rhand -20.9684 -35.0226
rfingers 7.12502
rthumb 5.40483 -64.9337
lclavicle -4.09993e-016 -1.90833e-014
lhumerus -33.632 0.455355 91.2079
lradius 18.9419
lwrist 6.45385
lhand -23.7264 -12.9287
lfingers 7.12502
lthumb 2.74163 17.0334
rfemur -20.2415 -0.298715 30.1194
rtibia 38.1186
rfoot -19.6181 13.9713
rtoes 3.77435
lfemur -28.7443 3.77496 -16.5242
ltibia 59.9137
lfoot -14.7356 -1.27137
ltoes -17.4854
209
root 7.28084 16.3981 11.9363 7.88363 0.167079 -4.12031
lowerback -0.914916 2.2955 5.19956
upperback -3.48637 3.19133 3.07354
thorax -2.97939 1.49827 0.21017
lowerneck -9.81608 -0.984184 -1.13001
upperneck 14.2268 -0.838065 -2.01401
head 5.91847 -0.618162 -0.516188
rclavicle -2.51292e-014 -4.05521e-014
rhumerus -24.0963 -14.4582 -80.9704
rradius 24.302
rwrist 1.23499
rhand -20.1834 -36.4747
rfingers 7.12502
rthumb 6.1628 -66.3651
lclavicle -2.51292e-014 -4.05521e-014
lhumerus -35.9807 1.48576 90.2386
lradius 17.9665
lwrist 4.54433
lhand -23.4737 -12.5508
lfingers 7.12502
lthumb 2.98559 17.408
rfemur -19.0402 -0.536505 30.1346
rtibia 37.5777
rfoot -19.5315 15.0429
rtoes 4.01718
lfemur -29.9621 3.6974 -16.4942
ltibia 58.6599
lfoot -15.2352 -1.21603
ltoes -15.9637
210
root 7.28996 16.4114 12.1553 8.00194 -0.40931 -4.47215
lowerback -1.03856 2.58578 5.60279
upperback -3.44549 3.56691 3.02401
thorax -2.82984 1.67719 -0.0598199
lowerneck -10.1123 -1.02307 -0.791975
upperneck 14.5223 -0.891586 -2.29003
head 6.05892 -0.651199 -0.666972
rclavicle 5.62498e-015 3.18055e-015
rhumerus -21.7858 -12.6768 -81.9554
rradius 25.3495
rwrist -0.581803
rhand -19.3758 -37.738
rfingers 7.12502
rthumb 6.94236 -67.6042
lclavicle 5.62498e-015 3.18055e-015
lhumerus -38.156 2.13266 89.3598
lradius 17.1591
lwrist 3.66997
lhand -22.9398 -11.7875
lfingers 7.12502
lthumb 3.50127 18.1635
rfemur -17.9265 -0.303405 30.3413
rtibia 36.9712
rfoot -19.668 15.6601
rtoes 3.48794
lfemur -31.3833 3.64567 -16.1376
ltibia 57.2057
lfoot -15.6618 -1.36662
ltoes -12.6749
211
root 7.30757 16.4354 12.3782 8.07803 -0.849729 -4.40486
lowerback -1.16322 2.78609 5.69922
upperback -3.4082 3.81716 2.85646
thorax -2.6934 1.8004 -0.278891
lowerneck -10.2177 -1.03096 -0.701084
upperneck 14.6163 -0.925383 -2.21777
head 6.10614 -0.658293 -0.663117
rclavicle 2.36678e-014 -3.97569e-015
rhumerus -19.6093 -10.524 -82.7672
rradius 26.2821
rwrist -2.27057
rhand -19.3661 -38.0011
rfingers 7.12502
rthumb 6.95176 -67.867
lclavicle 2.36678e-014 -3.97569e-015
lhumerus -40.4977 2.66071 88.5179
lradius 16.6221
lwrist 3.40346
lhand -21.5866 -10.8318
lfingers 7.12502
lthumb 4.80798 19.0936
rfemur -16.7095 -0.503065 30.0201
rtibia 36.3051
rfoot -19.4251 16.8747
rtoes 4.34356
lfemur -32.6078 3.43278 -16.2443
ltibia 55.5385
lfoot -16.6693 -1.05936
ltoes -14.0278
212
root 7.32824 16.4516 12.6093 8.04189 -1.32049 -4.26567
lowerback -1.20269 3.02116 5.69869
upperback -3.34374 4.11888 2.68298
thorax -2.57766 1.9519 -0.45311
lowerneck -10.2985 -1.01137 -0.720559
upperneck 14.6536 -0.93613 -1.95112
head 6.13304 -0.644266 -0.57707
rclavicle -1.28465e-014 -2.22639e-014
rhumerus -17.4587 -8.36364 -83.3186
rradius 27.098
rwrist -3.89011
rhand -20.1806 -36.9165
rfingers 7.12502
rthumb 6.1655 -66.8068
lclavicle -1.28465e-014 -2.22639e-014
lhumerus -42.7361 3.79703 87.1088
lradius 16.1253
lwrist 2.02454
lhand -21.4738 -12.0279
lfingers 7.12502
lthumb 4.91684 17.895
rfemur -15.3837 -0.880313 29.5629
rtibia 35.5561
rfoot -19.013 18.3884
rtoes 5.76056
lfemur -33.506 3.39991 -16.4728
ltibia 53.7044
lfoot -17.4142 -0.979305
ltoes -14.5805
213
root 7.33621 16.4488 12.8263 7.96993 -2.09712 -4.90743
lowerback -1.01684 3.32132 6.21933
upperback -3.19713 4.52934 2.77085
thorax -2.48109 2.14874 -0.655024
lowerneck -10.5612 -0.919149 -0.50757
upperneck 14.6004 -0.844947 -1.94705
head 6.16081 -0.588869 -0.604616
rclavicle 2.68359e-015 -1.19271e-014
rhumerus -15.1016 -6.67047 -83.7089
rradius 27.9403
rwrist -5.06673
rhand -19.9858 -36.5974
rfingers 7.12502
rthumb 6.35348 -66.4821
lclavicle 2.68359e-015 -1.19271e-014
lhumerus -44.7364 5.66478 84.9409
lradius 15.4685
lwrist -0.550003
lhand -22.8554 -14.4497
lfingers 7.12502
lthumb 3.58279 15.4999
rfemur -14.0687 -0.666884 29.9838
rtibia 34.7228
rfoot -18.312 19.3607
rtoes 7.30081
lfemur -34.3514 3.76528 -15.7545
ltibia 51.7264
lfoot -17.3575 -1.44167
ltoes -12.4233
214
root 7.34569 16.4523 13.0488 7.9116 -2.87779 -5.4525
lowerback -0.859117 3.55313 6.69243
upperback -3.08359 4.84793 2.81627
thorax -2.40275 2.30005 -0.872897
lowerneck -10.5782 -0.802304 -0.365433
upperneck 14.3938 -0.732452 -1.82911
head 6.09885 -0.516149 -0.580147
rclavicle -1.1842e-013 -8.74653e-015
rhumerus -12.7926 -5.18267 -84.0262
rradius 28.755
rwrist -5.76103
rhand -19.2145 -37.3769
rfingers 7.12502
rthumb 7.09805 -67.2379
lclavicle -1.1842e-013 -8.74653e-015
lhumerus -47.0162 7.68714 82.3627
lradius 14.8715
lwrist -2.97762
lhand -22.4292 -14.3931
lfingers 7.12502
lthumb 3.99434 15.5492
rfemur -12.6693 -0.633925 30.2696
rtibia 33.7365
rfoot -16.9124 20.5724
rtoes 10.1303
lfemur -35.0607 3.95745 -15.1139
ltibia 49.5651
lfoot -17.2782 -1.29973
ltoes -12.2137
215
root 7.36626 16.4578 13.2869 7.86581 -3.34936 -5.18836
lowerback -0.853933 3.72485 6.54643
upperback -3.08801 5.07231 2.63165
thorax -2.39086 2.4133 -0.982268
lowerneck -10.6271 -0.785378 -0.44129
upperneck 14.5443 -0.731843 -1.59016
head 6.15615 -0.502162 -0.492912
rclavicle -1.97542e-015 -3.26007e-014
rhumerus -10.7407 -3.75212 -84.0445
rradius 29.3281
rwrist -6.59769
rhand -19.4145 -37.9037
rfingers 7.12502
rthumb 6.90501 -67.7711
lclavicle -1.97542e-015 -3.26007e-014
lhumerus -49.6063 8.98431 80.0872
lradius 14.4543
lwrist -4.39145
lhand -20.2674 -12.6815
lfingers 7.12502
lthumb 6.08169 17.2112
rfemur -11.1314 -1.14581 29.6419
rtibia 32.6505
rfoot -16.0038 21.8849
rtoes 8.93176
lfemur -35.6451 3.64282 -15.3891
ltibia 47.2167
lfoot -17.5694 -0.169238
ltoes -14.7906
216
root 7.39698 16.4736 13.5378 7.87377 -3.51514 -4.9478
lowerback -1.1499 3.88322 6.60095
upperback -3.04917 5.24919 2.44697
thorax -2.15114 2.50558 -1.1764
lowerneck -10.7201 -0.821023 -0.560125
upperneck 14.6968 -0.775992 -1.46971
head 6.22133 -0.521556 -0.440096
rclavicle -3.57688e-014 -1.90833e-014
rhumerus -8.6989 -2.38975 -83.8045
rradius 29.7295
rwrist -7.69958
rhand -19.8497 -38.0032
rfingers 7.12502
rthumb 6.48496 -67.8839
lclavicle -3.57688e-014 -1.90833e-014
lhumerus -52.0715 9.25298 78.6089
lradius 14.1204
lwrist -4.66433
lhand -19.2555 -11.7402
lfingers 7.12502
lthumb 7.05849 18.1221
rfemur -9.58235 -2.24194 28.9178
rtibia 31.6175
rfoot -15.229 23.4951
rtoes 5.2246
lfemur -36.1829 3.02682 -15.5756
ltibia 44.7147
lfoot -17.8796 0.905044
ltoes -17.7781
217
root 7.42268 16.4795 13.7817 7.88781 -3.91902 -4.82607
lowerback -1.40466 4.12099 6.65324
upperback -2.92688 5.53113 2.28543
thorax -1.84183 2.6544 -1.34125
lowerneck -10.6809 -0.890264 -0.470215
upperneck 14.4629 -0.874061 -1.56347
head 6.139 -0.570203 -0.491459
rclavicle -5.20567e-015 -8.74653e-015
rhumerus -6.51521 -1.34364 -83.5073
rradius 30.1779
rwrist -8.35585
rhand -19.1911 -38.5615
rfingers 7.12502
rthumb 7.12073 -68.4217
lclavicle -5.20567e-015 -8.74653e-015
lhumerus -54.2792 9.3913 77.1228
lradius 13.7522
lwrist -4.93088
lhand -19.2722 -11.5691
lfingers 7.12502
lthumb 7.04244 18.2937
rfemur -8.24387 -3.00452 28.2697
rtibia 30.6958
rfoot -13.1838 25.3555
rtoes 8.50796
lfemur -36.5924 2.80637 -15.6554
ltibia 42.1228
lfoot -17.947 1.49257
ltoes -20.1312
